<svg width="150" height="113" viewBox="0 0 150 113" fill="none" xmlns="http://www.w3.org/2000/svg">
<path fill-rule="evenodd" clip-rule="evenodd" d="M147.373 33.0383V107.116C147.373 108.687 146.1 109.961 144.529 109.961H80.4225H74.9832H5.43726C3.86649 109.961 2.59314 108.687 2.59314 107.116V33.0383C2.59314 31.4675 3.86649 30.1942 5.43725 30.1942H9.24426C10.9011 30.1942 12.2443 28.851 12.2443 27.1942V17.191C12.2443 16.5616 12.453 15.95 12.8379 15.452L21.4567 4.29821C21.9952 3.60122 22.8264 3.19312 23.7072 3.19312H126.259C127.14 3.19312 127.971 3.60123 128.51 4.29821L137.129 15.452C137.513 15.95 137.722 16.5616 137.722 17.191V27.1942C137.722 28.851 139.065 30.1942 140.722 30.1942H144.529C146.1 30.1942 147.373 31.4675 147.373 33.0383ZM22.3106 30.1942H27.2723V37.956C27.2723 39.6129 28.6154 40.956 30.2723 40.956H74.9832H119.694C121.351 40.956 122.694 39.6129 122.694 37.956V30.1942H127.656V17.6281C127.656 16.7409 127.242 15.9045 126.536 15.3665L119.949 10.3433C119.454 9.96544 118.848 9.76076 118.225 9.76076L31.7417 9.76077C31.1185 9.76077 30.5126 9.96544 30.0171 10.3433L23.4301 15.3665C22.7246 15.9045 22.3106 16.7409 22.3106 17.6281V30.1942Z" fill="#D9D9D9"/>
<path d="M27.2723 37.956C27.2723 39.6129 28.6154 40.956 30.2723 40.956H74.9832H119.694C121.351 40.956 122.694 39.6129 122.694 37.956V30.1942H74.9832H27.2723V37.956Z" fill="#D9D9D9"/>
<path d="M57.3659 93.7781C57.3659 92.1212 58.7091 90.7781 60.3659 90.7781H89.6004C91.2573 90.7781 92.6004 92.1212 92.6004 93.7781V97.9561C92.6004 99.6129 91.2573 100.956 89.6004 100.956H60.3659C58.7091 100.956 57.3659 99.6129 57.3659 97.9561V93.7781Z" fill="#D9D9D9"/>
<path d="M74.9832 30.1942H27.2723M74.9832 30.1942H122.694M74.9832 30.1942H22.3106M74.9832 30.1942H127.656M74.9832 30.1942H5.43725M74.9832 30.1942H144.529M27.2723 30.1942V37.956C27.2723 39.6129 28.6154 40.956 30.2723 40.956H74.9832H119.694C121.351 40.956 122.694 39.6129 122.694 37.956V30.1942M27.2723 30.1942H22.3106M122.694 30.1942H127.656M15.065 30.1942H22.3106M22.3106 30.1942V17.6281C22.3106 16.7409 22.7246 15.9045 23.4301 15.3665L30.0171 10.3433C30.5126 9.96544 31.1185 9.76077 31.7417 9.76077L118.225 9.76076C118.848 9.76076 119.454 9.96543 119.949 10.3433L126.536 15.3665C127.242 15.9045 127.656 16.7409 127.656 17.6281V30.1942M127.656 30.1942H134.936M147.373 33.0383V107.116M147.373 33.0383C147.373 31.4675 146.1 30.1942 144.529 30.1942M147.373 33.0383V33.0383C147.373 31.4675 146.1 30.1942 144.529 30.1942V30.1942M147.373 107.116C147.373 108.687 146.1 109.961 144.529 109.961M147.373 107.116V107.116C147.373 108.687 146.1 109.961 144.529 109.961V109.961M144.529 109.961H80.4225H74.9832H5.43726M5.43726 109.961C3.86649 109.961 2.59314 108.687 2.59314 107.116M5.43726 109.961V109.961C3.86649 109.961 2.59314 108.687 2.59314 107.116V107.116M2.59314 107.116V33.0383M2.59314 33.0383C2.59314 31.4675 3.86649 30.1942 5.43725 30.1942M2.59314 33.0383V33.0383C2.59314 31.4675 3.86649 30.1942 5.43725 30.1942V30.1942M5.43725 30.1942H9.24426C10.9011 30.1942 12.2443 28.851 12.2443 27.1942V17.191C12.2443 16.5616 12.453 15.95 12.8379 15.452L21.4567 4.29821C21.9952 3.60122 22.8264 3.19312 23.7072 3.19312H126.259C127.14 3.19312 127.971 3.60123 128.51 4.29821L137.129 15.452C137.513 15.95 137.722 16.5616 137.722 17.191V27.1942C137.722 28.851 139.065 30.1942 140.722 30.1942H144.529M60.3659 100.956H89.6004C91.2573 100.956 92.6004 99.6129 92.6004 97.9561V93.7781C92.6004 92.1212 91.2573 90.7781 89.6004 90.7781H60.3659C58.7091 90.7781 57.3659 92.1212 57.3659 93.7781V97.9561C57.3659 99.6129 58.7091 100.956 60.3659 100.956Z" stroke="black" stroke-width="5"/>
<path fill-rule="evenodd" clip-rule="evenodd" d="M95.9634 79.764C95.9634 92.6222 106.387 103.046 119.245 103.046C132.103 103.046 142.527 92.6222 142.527 79.764C142.527 66.9058 132.103 56.4822 119.245 56.4822C106.387 56.4822 95.9634 66.9058 95.9634 79.764ZM119.245 100.755C107.652 100.755 98.2538 91.3572 98.2538 79.764C98.2538 68.1708 107.652 58.7727 119.245 58.7727C130.838 58.7727 140.236 68.1708 140.236 79.764C140.236 91.3572 130.838 100.755 119.245 100.755Z" fill="#D9D9D9"/>
<path fill-rule="evenodd" clip-rule="evenodd" d="M98.2538 79.764C98.2538 91.3572 107.652 100.755 119.245 100.755C130.838 100.755 140.236 91.3572 140.236 79.764C140.236 68.1708 130.838 58.7727 119.245 58.7727C107.652 58.7727 98.2538 68.1708 98.2538 79.764ZM119.245 92.4828C112.221 92.4828 106.526 86.7884 106.526 79.764C106.526 72.7396 112.221 67.0452 119.245 67.0452C126.27 67.0452 131.964 72.7396 131.964 79.764C131.964 86.7884 126.27 92.4828 119.245 92.4828Z" fill="#D9D9D9"/>
<path fill-rule="evenodd" clip-rule="evenodd" d="M106.526 79.764C106.526 86.7884 112.221 92.4828 119.245 92.4828C126.27 92.4828 131.964 86.7884 131.964 79.764C131.964 72.7396 126.27 67.0452 119.245 67.0452C112.221 67.0452 106.526 72.7396 106.526 79.764ZM114.48 86.0871C110.988 83.4552 110.29 78.4908 112.921 74.9987C115.553 71.5066 120.517 70.8092 124.01 73.441C127.502 76.0728 128.2 81.0373 125.569 84.5294C122.937 88.0215 117.973 88.7189 114.48 86.0871Z" fill="#D9D9D9"/>
<path fill-rule="evenodd" clip-rule="evenodd" d="M112.921 74.9987C110.29 78.4908 110.988 83.4552 114.48 86.0871C117.973 88.7189 122.937 88.0215 125.569 84.5294C128.2 81.0373 127.502 76.0728 124.01 73.441C120.517 70.8092 115.553 71.5066 112.921 74.9987Z" fill="black"/>
<path fill-rule="evenodd" clip-rule="evenodd" d="M54.003 79.764C54.003 92.6222 43.5794 103.046 30.7213 103.046C17.8631 103.046 7.43951 92.6222 7.43951 79.764C7.43951 66.9058 17.8631 56.4822 30.7213 56.4822C43.5794 56.4822 54.003 66.9058 54.003 79.764ZM30.7213 100.755C42.3145 100.755 51.7126 91.3572 51.7126 79.764C51.7126 68.1708 42.3145 58.7727 30.7213 58.7727C19.1281 58.7727 9.72996 68.1708 9.72996 79.764C9.72996 91.3572 19.1281 100.755 30.7213 100.755Z" fill="#D9D9D9"/>
<path fill-rule="evenodd" clip-rule="evenodd" d="M51.7126 79.764C51.7126 91.3572 42.3145 100.755 30.7213 100.755C19.1281 100.755 9.72996 91.3572 9.72996 79.764C9.72996 68.1708 19.1281 58.7727 30.7213 58.7727C42.3145 58.7727 51.7126 68.1708 51.7126 79.764ZM30.7213 92.4828C37.7457 92.4828 43.44 86.7884 43.44 79.764C43.44 72.7396 37.7457 67.0452 30.7213 67.0452C23.6969 67.0452 18.0025 72.7396 18.0025 79.764C18.0025 86.7884 23.6969 92.4828 30.7213 92.4828Z" fill="#D9D9D9"/>
<path fill-rule="evenodd" clip-rule="evenodd" d="M43.44 79.764C43.44 86.7884 37.7457 92.4828 30.7213 92.4828C23.6969 92.4828 18.0025 86.7884 18.0025 79.764C18.0025 72.7396 23.6969 67.0452 30.7213 67.0452C37.7457 67.0452 43.44 72.7396 43.44 79.764ZM35.486 86.0871C38.9786 83.4552 39.6766 78.4908 37.0451 74.9987C34.4136 71.5066 29.4491 70.8092 25.9565 73.441C22.464 76.0728 21.7659 81.0373 24.3974 84.5294C27.0289 88.0215 31.9935 88.7189 35.486 86.0871Z" fill="#D9D9D9"/>
<path fill-rule="evenodd" clip-rule="evenodd" d="M37.0451 74.9987C39.6766 78.4908 38.9786 83.4552 35.486 86.0871C31.9935 88.7189 27.0289 88.0215 24.3974 84.5294C21.7659 81.0373 22.464 76.0728 25.9565 73.441C29.4491 70.8092 34.4136 71.5066 37.0451 74.9987ZM31.1219 80.9439C33.2169 79.3652 33.8647 76.6913 32.5688 74.9715C31.2728 73.2518 28.5239 73.1374 26.4289 74.7162C24.3339 76.2949 23.6861 78.9688 24.982 80.6885C26.2779 82.4083 29.0268 82.5226 31.1219 80.9439Z" fill="black"/>
<path d="M32.5688 74.9715C33.8647 76.6913 33.2169 79.3652 31.1219 80.9439C29.0268 82.5226 26.2779 82.4083 24.982 80.6885C23.6861 78.9688 24.3339 76.2949 26.4289 74.7162C28.5239 73.1374 31.2728 73.2518 32.5688 74.9715Z" fill="white"/>
<path fill-rule="evenodd" clip-rule="evenodd" d="M125.6 75.0094C128.231 78.5015 127.533 83.4659 124.041 86.0978C120.548 88.7296 115.584 88.0322 112.952 84.5401C110.321 81.048 111.019 76.0835 114.511 73.4517C118.004 70.8198 122.968 71.5172 125.6 75.0094ZM119.677 80.9546C121.772 79.3759 122.419 76.7019 121.124 74.9822C119.828 73.2625 117.079 73.1481 114.984 74.7268C112.889 76.3055 112.241 78.9795 113.537 80.6992C114.833 82.419 117.582 82.5333 119.677 80.9546Z" fill="black"/>
<path d="M121.124 74.9822C122.419 76.7019 121.772 79.3759 119.677 80.9546C117.582 82.5333 114.833 82.419 113.537 80.6992C112.241 78.9795 112.889 76.3055 114.984 74.7268C117.079 73.1481 119.828 73.2625 121.124 74.9822Z" fill="white"/>
<path d="M53.8172 60.6996L96.1472 60.5789M60.7964 68.1135H89.17M60.7964 72.8966H89.17M66.1773 80.3103L83.7891 80.3103M54.003 79.764C54.003 92.6222 43.5794 103.046 30.7213 103.046C17.8631 103.046 7.43951 92.6222 7.43951 79.764C7.43951 66.9058 17.8631 56.4822 30.7213 56.4822C43.5794 56.4822 54.003 66.9058 54.003 79.764ZM51.7126 79.764C51.7126 91.3572 42.3145 100.755 30.7213 100.755C19.1281 100.755 9.72996 91.3572 9.72996 79.764C9.72996 68.1708 19.1281 58.7727 30.7213 58.7727C42.3145 58.7727 51.7126 68.1708 51.7126 79.764ZM43.44 79.764C43.44 86.7884 37.7457 92.4828 30.7213 92.4828C23.6969 92.4828 18.0025 86.7884 18.0025 79.764C18.0025 72.7396 23.6969 67.0452 30.7213 67.0452C37.7457 67.0452 43.44 72.7396 43.44 79.764ZM37.0451 74.9987C39.6766 78.4908 38.9786 83.4552 35.486 86.0871C31.9935 88.7189 27.0289 88.0215 24.3974 84.5294C21.7659 81.0373 22.464 76.0728 25.9565 73.441C29.4491 70.8092 34.4136 71.5066 37.0451 74.9987ZM32.5688 74.9715C33.8647 76.6913 33.2169 79.3652 31.1219 80.9439C29.0268 82.5226 26.2779 82.4083 24.982 80.6885C23.6861 78.9688 24.3339 76.2949 26.4289 74.7162C28.5239 73.1374 31.2728 73.2518 32.5688 74.9715ZM95.9634 79.764C95.9634 92.6222 106.387 103.046 119.245 103.046C132.103 103.046 142.527 92.6222 142.527 79.764C142.527 66.9058 132.103 56.4822 119.245 56.4822C106.387 56.4822 95.9634 66.9058 95.9634 79.764ZM98.2538 79.764C98.2538 91.3572 107.652 100.755 119.245 100.755C130.838 100.755 140.236 91.3572 140.236 79.764C140.236 68.1708 130.838 58.7727 119.245 58.7727C107.652 58.7727 98.2538 68.1708 98.2538 79.764ZM106.526 79.764C106.526 86.7884 112.221 92.4828 119.245 92.4828C126.269 92.4828 131.964 86.7884 131.964 79.764C131.964 72.7396 126.269 67.0452 119.245 67.0452C112.221 67.0452 106.526 72.7396 106.526 79.764ZM112.921 74.9987C110.29 78.4908 110.988 83.4552 114.48 86.0871C117.973 88.7189 122.937 88.0215 125.569 84.5294C128.2 81.0373 127.502 76.0728 124.01 73.441C120.517 70.8092 115.553 71.5066 112.921 74.9987ZM125.6 75.0094C128.231 78.5015 127.533 83.4659 124.041 86.0978C120.548 88.7296 115.584 88.0322 112.952 84.5401C110.321 81.048 111.019 76.0835 114.511 73.4517C118.004 70.8198 122.968 71.5172 125.6 75.0094ZM121.124 74.9822C122.419 76.7019 121.772 79.3759 119.677 80.9546C117.582 82.5333 114.833 82.419 113.537 80.6992C112.241 78.9795 112.889 76.3056 114.984 74.7268C117.079 73.1481 119.828 73.2625 121.124 74.9822Z" stroke="black" stroke-width="2"/>
</svg>
