<svg width="411" height="303" viewBox="0 0 411 303" fill="none" xmlns="http://www.w3.org/2000/svg">
<path d="M447.342 106.572C446.296 106.981 424.435 123.294 413.635 131.4M413.635 131.4C413.914 131.912 413.933 133.375 411.77 135.125C409.067 137.312 400.958 141.687 398.49 141.572C397.284 141.516 396.555 141.13 395.783 141.032M413.635 131.4L374.395 54.879M237.84 231.328C236.4 232.056 232.023 233.652 225.484 235.881M237.84 231.328C237.165 234.345 235.743 240.539 235.455 241.174M237.84 231.328C238.38 231.055 239.22 230.698 240.329 230.265M4.57438 254.379C4.91542 257.385 51.2956 266.071 54.706 268.076C57.4342 269.679 63.118 280.993 65.6189 286.449C73.7303 283.952 83.1106 281.054 93.2229 277.918M4.57438 254.379C22.7394 254.22 98.6887 233.291 130.756 214.381C162.823 195.472 244.819 121.161 244.819 121.161C246.046 130.376 246.287 140.887 251 152.258C253.905 159.268 276.716 184.127 277.762 185.407C270.795 174.401 258 151.881 256.336 141.29C254.937 132.382 255.291 108.875 256.336 100.685C251.971 104.605 243.075 112.606 242.417 113.251C241.594 114.057 157.411 191.692 122.887 210.837C91.2847 228.363 16.1235 246.84 2.30002 248.301M4.57438 254.379C4.37634 252.633 2.6832 250.323 2.30002 248.301M355.154 65.2953C347.993 72.3108 319.346 76.9878 311.161 79.3262C302.977 81.6647 291.04 77.6559 281.492 76.9877C271.943 76.3196 271.602 72.9789 265.122 75.3174C258.642 77.6559 232.383 106.572 209.875 126.43C187.367 146.289 9.68985 242.686 4.57438 244.691C2.42957 245.531 2.02336 246.841 2.30002 248.301M355.154 65.2953C360.884 59.6829 370.369 56.0126 374.395 54.879M355.154 65.2953L395.783 141.032M374.395 54.879L447.185 2M395.783 141.032C394.974 140.929 394.117 141.141 392.614 142.378C389.676 144.796 375.103 156.654 372.987 165.748C371.295 173.024 369.07 185.128 368.169 190.27C355.45 194.063 338.464 199.173 320.947 204.514M264.496 222.076C264.511 222.679 264.359 224.291 263.639 225.914C262.739 227.943 262.739 228.384 263.189 230.501C263.639 232.618 267.061 238.527 268.321 239.762C269.582 240.997 272.644 243.203 275.615 243.732C278.587 244.261 283.449 246.025 286.781 243.732C288.666 242.434 291.358 240.713 293.275 239.112M264.496 222.076C266.074 221.569 267.699 221.049 269.368 220.518M264.496 222.076C253.434 225.631 244.745 228.544 240.329 230.265M281.455 216.701C284.401 218.802 290.617 223.585 291.913 225.914C293.534 228.825 295.245 233.941 295.605 235.881C295.762 236.724 294.747 237.883 293.275 239.112M281.455 216.701C277.245 218.021 273.194 219.3 269.368 220.518M281.455 216.701C288.851 214.383 296.736 211.939 304.751 209.474M269.368 220.518C274.572 222.787 285.16 227.325 285.88 227.325M285.88 227.325C286.601 227.325 289.722 226.384 291.193 225.914M285.88 227.325C288.131 229.177 292.094 233.323 292.724 235.087C293.228 236.499 293.301 238.358 293.275 239.112M304.751 209.474C305.15 212.065 304.209 213.094 303.162 214.381C301.854 215.99 301.999 215.428 301.458 216.701C300.918 217.975 303.181 226.531 304.751 227.854C306.321 229.177 312.084 231.471 315.776 231.824C319.467 232.177 332.933 228.394 334.775 225.914C335.986 224.284 338.107 219.386 337.567 217.446C337.026 215.505 336.039 210.334 332.524 208.713C330.756 207.898 324.296 205.679 320.947 204.514M304.751 209.474C307.83 208.526 310.928 207.576 314.024 206.629M320.947 204.514C318.646 205.216 316.335 205.921 314.024 206.629M314.024 206.629C318.3 207.912 326.84 210.18 328.832 211.271C331.794 212.895 334.817 218.739 336.528 222.076M225.484 235.881C224.906 239.145 223.839 245.937 224.199 246.995M225.484 235.881C218.655 238.21 209.467 241.229 198.806 244.672M224.199 246.995C224.649 248.319 229.061 246.819 229.692 246.202C230.322 245.584 235.094 241.968 235.455 241.174M224.199 246.995C225.28 250.2 227.621 256.734 228.341 257.228C228.725 257.49 230.692 257.433 232.937 257.275C235.964 257.06 239.495 256.661 240.329 256.61C241.109 256.563 241.8 255.753 242.413 254.755M235.455 241.174C236.295 243.438 238.156 248.46 238.876 250.436C239.597 252.411 241.534 254.138 242.413 254.755M240.329 230.265C241.796 233.049 244.747 239.127 244.819 241.174C244.909 243.732 244.729 250.436 243.829 252.111C243.412 252.888 242.942 253.892 242.413 254.755M187.515 248.301C190.709 250.718 197.437 255.657 198.806 256.081M187.515 248.301C191.425 247.05 195.2 245.837 198.806 244.672M187.515 248.301C185.433 248.968 183.314 249.645 181.161 250.331M198.806 256.081C200.517 256.61 203.578 255.634 204.029 254.755C204.479 253.876 204.659 252.729 204.029 251.582M198.806 256.081C200.547 258.874 204.029 264.655 204.029 265.431C204.029 266.207 204.029 267.224 204.029 267.636M204.029 251.582C203.524 250.665 200.337 246.593 198.806 244.672M204.029 251.582C204.899 252.2 206.694 254.264 206.91 255.463C207.18 256.963 208.801 262.167 208.801 263.226C208.801 264.072 205.62 266.519 204.029 267.636M204.029 267.636C202.884 268.565 200.237 270.453 198.806 270.58C197.017 270.739 189.605 268.526 189.079 268.081C188.552 267.636 182.558 257.686 182.518 256.734C182.485 255.972 181.599 252.148 181.161 250.331M181.161 250.331C172.081 253.225 162.416 256.284 152.552 259.39M141.668 262.811C143.48 265.884 147.42 272.071 148.69 272.233M141.668 262.811C145.31 261.668 148.945 260.526 152.552 259.39M141.668 262.811C140.858 263.065 140.048 263.319 139.238 263.573M148.69 272.233C150.276 272.436 156.624 270.032 156.624 269.056M148.69 272.233C150.069 275.342 151.863 278.721 153.174 280.005C154.182 280.992 156.121 281.783 157.107 281.357M156.624 269.056C156.624 268.276 153.909 262.287 152.552 259.39M156.624 269.056C158.095 271.67 159.452 276.572 159.728 278.248C160.073 280.343 159.133 280.457 157.107 281.357M157.107 281.357C157.712 281.095 156.719 281.528 157.107 281.357ZM157.107 281.357C155.362 282.028 152.095 282.972 150.881 282.972C149.363 282.972 147.921 282.972 145.723 280.005C144.236 277.997 141.1 268.059 139.238 263.573M139.238 263.573C129.914 266.496 120.569 269.415 111.52 272.233M105.538 274.094C104.606 277.506 102.7 284.438 102.534 284.871C102.437 285.125 102.294 286.051 102.234 287.024M105.538 274.094C107.515 273.479 109.51 272.859 111.52 272.233M105.538 274.094C101.34 275.399 97.2244 276.677 93.2229 277.918M106.881 298.523C105.962 298.897 102.947 290.757 102.534 289.602C102.381 289.171 102.167 288.122 102.234 287.024M106.881 298.523C108.695 297.785 112.914 296.439 113.466 295.56C114.018 294.682 115.781 292.913 116.057 291.629C116.057 289.602 115.919 283.722 115.505 282.303C115.173 281.167 112.71 275.116 111.52 272.233M106.881 298.523C104.374 299.542 99.8158 301.226 99.1535 301.226C98.3256 301.226 96.8078 300.348 96.1869 298.523C95.5659 296.698 92.2543 289.264 92.2543 288.047M92.2543 288.047C92.2543 287.074 92.9001 280.889 93.2229 277.918M92.2543 288.047C92.5772 288.047 93.4293 287.98 94.2551 287.709C95.0809 287.439 99.9185 287.14 102.234 287.024M249.165 216.794C251.871 216.794 254.065 214.645 254.065 211.994C254.065 211.886 254.061 211.779 254.054 211.673M249.165 216.794C247.903 216.794 246.752 216.326 245.884 215.559M249.165 216.794L240.465 214.851M245.884 215.559C244.89 214.68 244.265 213.409 244.265 211.994C244.265 209.343 246.459 207.194 249.165 207.194C250.609 207.194 251.907 207.806 252.804 208.78M245.884 215.559C245.359 215.656 244.818 215.706 244.265 215.706C242.902 215.706 241.613 215.399 240.465 214.851M252.804 208.78C252.903 208.266 252.955 207.736 252.955 207.194C252.955 206.086 252.739 205.028 252.346 204.057M252.804 208.78C253.519 209.556 253.979 210.563 254.054 211.673M240.465 214.851C237.57 213.47 235.575 210.56 235.575 207.194C235.575 202.493 239.466 198.682 244.265 198.682C247.933 198.682 251.071 200.908 252.346 204.057M254.054 211.673L252.346 204.057M201.744 231.038C204.54 231.134 206.883 229.064 206.977 226.414C206.981 226.306 206.981 226.199 206.977 226.093M201.744 231.038C200.441 230.994 199.269 230.486 198.399 229.688M201.744 231.038L192.827 228.79M198.399 229.688C197.404 228.775 196.803 227.482 196.854 226.068C196.948 223.419 199.291 221.349 202.086 221.444C203.578 221.495 204.898 222.153 205.789 223.158M198.399 229.688C197.854 229.766 197.293 229.798 196.722 229.778C195.314 229.73 193.993 229.377 192.827 228.79M205.789 223.158C205.91 222.648 205.982 222.12 206.001 221.578C206.041 220.471 205.855 219.405 205.484 218.421M205.789 223.158C206.5 223.959 206.939 224.981 206.977 226.093M192.827 228.79C189.885 227.307 187.929 224.328 188.048 220.964C188.216 216.266 192.371 212.594 197.328 212.764C201.117 212.894 204.279 215.23 205.484 218.421M206.977 226.093L205.484 218.421M153.04 245.948C155.726 246.323 158.21 244.457 158.589 241.781C158.605 241.672 158.616 241.563 158.625 241.455M153.04 245.948C151.788 245.774 150.713 245.143 149.961 244.248M153.04 245.948L144.685 242.784M149.961 244.248C149.1 243.223 148.662 241.853 148.865 240.425C149.244 237.749 151.728 235.883 154.414 236.258C155.847 236.457 157.048 237.255 157.798 238.362M149.961 244.248C149.427 244.273 148.883 244.249 148.334 244.173C146.981 243.984 145.746 243.495 144.685 242.784M157.798 238.362C157.97 237.857 158.097 237.329 158.174 236.782C158.333 235.664 158.27 234.565 158.019 233.531M157.798 238.362C158.397 239.245 158.709 240.325 158.625 241.455M144.685 242.784C142.01 240.989 140.446 237.775 140.928 234.377C141.6 229.631 146.006 226.322 150.769 226.986C154.409 227.494 157.204 230.176 158.019 233.531M158.625 241.455L158.019 233.531M101.594 261.525C104.236 262.128 106.876 260.481 107.492 257.848C107.517 257.74 107.539 257.633 107.556 257.526M101.594 261.525C100.362 261.244 99.3471 260.524 98.6774 259.568M101.594 261.525L93.5515 257.659M98.6774 259.568C97.911 258.474 97.5965 257.072 97.9252 255.666C98.541 253.033 101.182 251.386 103.824 251.989C105.234 252.31 106.359 253.207 107.008 254.374M98.6774 259.568C98.1429 259.548 97.6028 259.478 97.0627 259.354C95.7324 259.051 94.5449 258.459 93.5515 257.659M107.008 254.374C107.224 253.886 107.398 253.371 107.524 252.832C107.781 251.732 107.816 250.632 107.658 249.58M107.008 254.374C107.526 255.305 107.741 256.407 107.556 257.526M93.5515 257.659C91.0462 255.643 89.7748 252.308 90.5569 248.964C91.6491 244.294 96.3326 241.374 101.018 242.442C104.599 243.258 107.145 246.168 107.658 249.58M107.556 257.526L107.658 249.58M297.594 200.817C300.206 200.15 301.837 197.597 301.235 195.115C301.211 195.014 301.183 194.914 301.152 194.817M297.594 200.817C296.376 201.129 295.159 200.975 294.147 200.471M297.594 200.817L288.755 201.145M294.147 200.471C292.988 199.893 292.096 198.857 291.776 197.532C291.175 195.05 292.805 192.497 295.417 191.83C296.812 191.474 298.204 191.726 299.29 192.417M294.147 200.471C293.662 200.691 293.151 200.872 292.617 201.008C291.302 201.344 289.988 201.375 288.755 201.145M299.29 192.417C299.269 191.911 299.199 191.402 299.076 190.895C298.825 189.858 298.376 188.92 297.776 188.108M299.29 192.417C300.156 192.967 300.828 193.796 301.152 194.817M288.755 201.145C285.648 200.566 283.062 198.334 282.299 195.182C281.233 190.781 284.125 186.253 288.758 185.069C292.298 184.164 295.832 185.475 297.776 188.108M301.152 194.817L297.776 188.108M344.142 185.677C346.7 184.827 348.143 182.148 347.365 179.693C347.333 179.593 347.298 179.495 347.261 179.398M344.142 185.677C342.949 186.073 341.724 186.002 340.678 185.564M344.142 185.677L335.348 186.61M340.678 185.564C339.481 185.062 338.517 184.081 338.102 182.77C337.324 180.315 338.767 177.636 341.325 176.786C342.69 176.333 344.097 176.492 345.23 177.112M340.678 185.564C340.211 185.818 339.714 186.035 339.191 186.209C337.903 186.637 336.594 186.757 335.348 186.61M345.23 177.112C345.173 176.605 345.066 176.098 344.907 175.596C344.582 174.57 344.068 173.657 343.411 172.882M345.23 177.112C346.134 177.606 346.864 178.394 347.261 179.398M335.348 186.61C332.207 186.24 329.467 184.172 328.48 181.054C327.1 176.7 329.66 171.949 334.196 170.442C337.664 169.29 341.282 170.366 343.411 172.882M347.261 179.398L343.411 172.882M258.976 206.918C258.976 214.694 252.54 220.998 244.602 220.998C236.663 220.998 230.228 214.694 230.228 206.918C230.228 199.141 237.511 193.277 245.45 193.277C253.388 193.277 258.976 199.141 258.976 206.918ZM212.231 221.515C211.954 229.287 205.082 235.36 196.881 235.079C188.681 234.799 182.257 228.271 182.534 220.499C182.811 212.727 190.544 207.124 198.745 207.404C206.945 207.685 212.508 213.743 212.231 221.515ZM164.189 237.336C163.077 245.187 155.789 250.66 147.911 249.561C140.033 248.463 134.549 241.208 135.661 233.358C136.773 225.508 144.84 220.596 152.718 221.695C160.596 222.793 165.301 229.486 164.189 237.336ZM113.466 253.898C111.66 261.623 103.912 266.454 96.1622 264.687C88.4121 262.92 83.5939 255.225 85.4006 247.499C87.2072 239.774 95.6801 235.569 103.43 237.336C111.18 239.103 115.273 246.173 113.466 253.898ZM304.825 189.151C306.589 196.431 301.806 203.921 294.142 205.879C286.479 207.838 278.838 203.523 277.075 196.243C275.311 188.962 281.013 181.675 288.676 179.717C296.339 177.758 303.062 181.87 304.825 189.151ZM350.518 173.449C352.8 180.651 348.566 188.51 341.062 191.004C333.558 193.497 325.625 189.68 323.344 182.478C321.062 175.276 326.227 167.557 333.731 165.064C341.234 162.571 348.236 166.247 350.518 173.449Z" stroke="black" stroke-width="3"/>
</svg>
